# xmcd
#
# Track frame offsets: 
# 187
# 21150
# 37117
# 56232
# 75830
# 93862
# 112547
# 138805
# 156630
#
# Disc length: 2480 seconds
# Submitted via: tkcNetwork 1.0
# Revision: 0
# Processed by: cddbd v1.5.1PL0 Copyright (c) Steve Scherf et al.
#
DISCID=6509ae09
DTITLE=Steely Dan - The Royal Scam
DYEAR=1900
DGENRE=
TTITLE0=Kid Charlemagne
TTITLE1=The Caves of Altamira
TTITLE2=Don't Take Me Alive
TTITLE3=Sign in Stranger
TTITLE4=The Fez
TTITLE5=Green Earrings
TTITLE6=Haitian Divorce
TTITLE7=Evertyhing you did
TTITLE8=The Royal Scam
EXTD=
EXTT0=
EXTT1=
EXTT2=
EXTT3=
EXTT4=
EXTT5=
EXTT6=
EXTT7=
EXTT8=
PLAYORDER=
